<?xml version="1.0" encoding="utf-8" standalone="no"?>
<!DOCTYPE svg PUBLIC "-//W3C//DTD SVG 1.1//EN"
  "http://www.w3.org/Graphics/SVG/1.1/DTD/svg11.dtd">
<svg xmlns:xlink="http://www.w3.org/1999/xlink" width="72pt" height="72pt" viewBox="0 0 72 72" xmlns="http://www.w3.org/2000/svg" version="1.1">
 <metadata>
  <rdf:RDF xmlns:dc="http://purl.org/dc/elements/1.1/" xmlns:cc="http://creativecommons.org/ns#" xmlns:rdf="http://www.w3.org/1999/02/22-rdf-syntax-ns#">
   <cc:Work>
    <dc:type rdf:resource="http://purl.org/dc/dcmitype/StillImage"/>
    <dc:date>2026-07-21T19:57:32.775117</dc:date>
    <dc:format>image/svg+xml</dc:format>
    <dc:creator>
     <cc:Agent>
      <dc:title>Matplotlib v3.6.3, https://matplotlib.org/</dc:title>
     </cc:Agent>
    </dc:creator>
   </cc:Work>
  </rdf:RDF>
 </metadata>
 <defs>
  <style type="text/css">*{stroke-linejoin: round; stroke-linecap: butt}</style>
 </defs>
 <g id="figure_1">
  <g id="patch_1">
   <path d="M 0 72 
L 72 72 
L 72 0 
L 0 0 
L 0 72 
z
" style="fill: none"/>
  </g>
  <g id="axes_1">
   <g id="patch_2">
    <path d="M 64.120755 36 
C 64.120755 32.307216 63.393357 28.65034 61.98019 25.238653 
C 60.567023 21.826966 58.495569 18.726816 55.884376 16.115624 
C 53.273184 13.504431 50.173034 11.432977 46.761347 10.01981 
C 43.34966 8.606643 39.692784 7.879245 36 7.879245 
C 32.307216 7.879245 28.65034 8.606643 25.238653 10.01981 
C 21.826966 11.432977 18.726816 13.504431 16.115624 16.115624 
C 13.504431 18.726816 11.432977 21.826966 10.01981 25.238653 
C 8.606643 28.65034 7.879245 32.307216 7.879245 36 
C 7.879245 39.692784 8.606643 43.34966 10.01981 46.761347 
C 11.432977 50.173034 13.504431 53.273184 16.115624 55.884376 
C 18.726816 58.495569 21.826966 60.567023 25.238653 61.98019 
C 28.65034 63.393357 32.307216 64.120755 36 64.120755 
C 39.692784 64.120755 43.34966 63.393357 46.761347 61.98019 
C 50.173034 60.567023 53.273184 58.495569 55.884376 55.884376 
C 58.495569 53.273184 60.567023 50.173034 61.98019 46.761347 
C 63.393357 43.34966 64.120755 39.692784 64.120755 36 
M 53.728302 36 
C 53.728302 38.328059 53.269725 40.633481 52.378815 42.784327 
C 51.487906 44.935174 50.181989 46.889616 48.535802 48.535802 
C 46.889616 50.181989 44.935174 51.487906 42.784327 52.378815 
C 40.633481 53.269725 38.328059 53.728302 36 53.728302 
C 33.671941 53.728302 31.366519 53.269725 29.215673 52.378815 
C 27.064826 51.487906 25.110384 50.181989 23.464198 48.535802 
C 21.818011 46.889616 20.512094 44.935174 19.621185 42.784327 
C 18.730275 40.633481 18.271698 38.328059 18.271698 36 
C 18.271698 33.671941 18.730275 31.366519 19.621185 29.215673 
C 20.512094 27.064826 21.818011 25.110384 23.464198 23.464198 
C 25.110384 21.818011 27.064826 20.512094 29.215673 19.621185 
C 31.366519 18.730275 33.671941 18.271698 36 18.271698 
C 38.328059 18.271698 40.633481 18.730275 42.784327 19.621185 
C 44.935174 20.512094 46.889616 21.818011 48.535802 23.464198 
C 50.181989 25.110384 51.487906 27.064826 52.378815 29.215673 
C 53.269725 31.366519 53.728302 33.671941 53.728302 36 
M 64.120755 36 
z
" clip-path="url(#pea5f05bf67)" style="fill: #8023c7"/>
   </g>
  </g>
 </g>
 <defs>
  <clipPath id="pea5f05bf67">
   <rect x="0" y="0" width="72" height="72"/>
  </clipPath>
 </defs>
</svg>
